<mxfile host="app.diagrams.net" agent="Mozilla/5.0 (Windows NT 10.0; Win64; x64) AppleWebKit/537.36 (KHTML, like Gecko) Chrome/138.0.0.0 Safari/537.36" version="27.2.0">
  <diagram name="Page-1" id="-nvLjb9azTQ-JGnYAIxe">
    <mxGraphModel dx="872" dy="439" grid="1" gridSize="10" guides="1" tooltips="1" connect="1" arrows="1" fold="1" page="1" pageScale="1" pageWidth="850" pageHeight="1100" math="0" shadow="0">
      <root>
        <mxCell id="0" />
        <mxCell id="1" parent="0" />
        <mxCell id="gOvX5m7XAD0OY206exAl-1" value="Activity edit data pasien" style="swimlane;childLayout=stackLayout;resizeParent=1;resizeParentMax=0;startSize=20;html=1;" vertex="1" parent="1">
          <mxGeometry x="470" y="200" width="610" height="770" as="geometry" />
        </mxCell>
        <mxCell id="gOvX5m7XAD0OY206exAl-2" value="Operator" style="swimlane;startSize=20;html=1;" vertex="1" parent="gOvX5m7XAD0OY206exAl-1">
          <mxGeometry y="20" width="280" height="750" as="geometry" />
        </mxCell>
        <mxCell id="gOvX5m7XAD0OY206exAl-3" value="" style="ellipse;html=1;shape=startState;fillColor=#000000;strokeColor=#ff0000;" vertex="1" parent="gOvX5m7XAD0OY206exAl-2">
          <mxGeometry x="128.99999999999955" y="20" width="30" height="30" as="geometry" />
        </mxCell>
        <mxCell id="gOvX5m7XAD0OY206exAl-4" value="" style="edgeStyle=orthogonalEdgeStyle;html=1;verticalAlign=bottom;endArrow=open;endSize=8;strokeColor=#ff0000;rounded=0;" edge="1" parent="gOvX5m7XAD0OY206exAl-2">
          <mxGeometry relative="1" as="geometry">
            <mxPoint x="143.99999999999955" y="100" as="targetPoint" />
            <mxPoint x="144" y="70" as="sourcePoint" />
          </mxGeometry>
        </mxCell>
        <mxCell id="gOvX5m7XAD0OY206exAl-5" value="klik tombol edit data pasien" style="rounded=1;whiteSpace=wrap;html=1;arcSize=40;fontColor=#000000;fillColor=#ffffc0;strokeColor=#ff0000;" vertex="1" parent="gOvX5m7XAD0OY206exAl-2">
          <mxGeometry x="83.99999999999955" y="222" width="120" height="40" as="geometry" />
        </mxCell>
        <mxCell id="gOvX5m7XAD0OY206exAl-6" value="form dibuka" style="rounded=1;whiteSpace=wrap;html=1;arcSize=40;fontColor=#000000;fillColor=#ffffc0;strokeColor=#ff0000;" vertex="1" parent="gOvX5m7XAD0OY206exAl-2">
          <mxGeometry x="84" y="302" width="120" height="40" as="geometry" />
        </mxCell>
        <mxCell id="gOvX5m7XAD0OY206exAl-7" value="" style="edgeStyle=orthogonalEdgeStyle;html=1;verticalAlign=bottom;endArrow=open;endSize=8;strokeColor=#ff0000;rounded=0;entryX=0.5;entryY=0;entryDx=0;entryDy=0;" edge="1" parent="gOvX5m7XAD0OY206exAl-2" source="gOvX5m7XAD0OY206exAl-6" target="gOvX5m7XAD0OY206exAl-9">
          <mxGeometry relative="1" as="geometry">
            <mxPoint x="144" y="392" as="targetPoint" />
          </mxGeometry>
        </mxCell>
        <mxCell id="gOvX5m7XAD0OY206exAl-8" style="edgeStyle=orthogonalEdgeStyle;rounded=0;orthogonalLoop=1;jettySize=auto;html=1;exitX=0.5;exitY=1;exitDx=0;exitDy=0;entryX=0.5;entryY=0;entryDx=0;entryDy=0;strokeColor=light-dark(#ff0000, #ededed);" edge="1" parent="gOvX5m7XAD0OY206exAl-2" source="gOvX5m7XAD0OY206exAl-9" target="gOvX5m7XAD0OY206exAl-10">
          <mxGeometry relative="1" as="geometry" />
        </mxCell>
        <mxCell id="gOvX5m7XAD0OY206exAl-9" value="isi form" style="rounded=1;whiteSpace=wrap;html=1;arcSize=40;fontColor=#000000;fillColor=#ffffc0;strokeColor=#ff0000;" vertex="1" parent="gOvX5m7XAD0OY206exAl-2">
          <mxGeometry x="84" y="382" width="120" height="40" as="geometry" />
        </mxCell>
        <mxCell id="gOvX5m7XAD0OY206exAl-10" value="klik simpan" style="rounded=1;whiteSpace=wrap;html=1;arcSize=40;fontColor=#000000;fillColor=#ffffc0;strokeColor=#ff0000;" vertex="1" parent="gOvX5m7XAD0OY206exAl-2">
          <mxGeometry x="84" y="462" width="120" height="40" as="geometry" />
        </mxCell>
        <mxCell id="gOvX5m7XAD0OY206exAl-11" value="" style="ellipse;html=1;shape=endState;fillColor=#000000;strokeColor=#ff0000;" vertex="1" parent="gOvX5m7XAD0OY206exAl-2">
          <mxGeometry x="128.99999999999955" y="712" width="30" height="30" as="geometry" />
        </mxCell>
        <mxCell id="gOvX5m7XAD0OY206exAl-12" value="melihat notifikasi" style="rounded=1;whiteSpace=wrap;html=1;arcSize=40;fontColor=#000000;fillColor=#ffffc0;strokeColor=#ff0000;" vertex="1" parent="gOvX5m7XAD0OY206exAl-2">
          <mxGeometry x="84" y="637" width="120" height="40" as="geometry" />
        </mxCell>
        <mxCell id="gOvX5m7XAD0OY206exAl-13" value="" style="edgeStyle=orthogonalEdgeStyle;html=1;verticalAlign=bottom;endArrow=open;endSize=8;strokeColor=#ff0000;rounded=0;" edge="1" parent="gOvX5m7XAD0OY206exAl-2" source="gOvX5m7XAD0OY206exAl-12">
          <mxGeometry relative="1" as="geometry">
            <mxPoint x="144" y="712" as="targetPoint" />
          </mxGeometry>
        </mxCell>
        <mxCell id="gOvX5m7XAD0OY206exAl-14" style="edgeStyle=orthogonalEdgeStyle;rounded=0;orthogonalLoop=1;jettySize=auto;html=1;exitX=0.5;exitY=1;exitDx=0;exitDy=0;entryX=0.5;entryY=0;entryDx=0;entryDy=0;" edge="1" parent="gOvX5m7XAD0OY206exAl-2" source="gOvX5m7XAD0OY206exAl-15" target="gOvX5m7XAD0OY206exAl-17">
          <mxGeometry relative="1" as="geometry" />
        </mxCell>
        <mxCell id="gOvX5m7XAD0OY206exAl-15" value="masuk halaman pasien" style="rounded=1;whiteSpace=wrap;html=1;arcSize=40;fontColor=#000000;fillColor=#ffffc0;strokeColor=#ff0000;" vertex="1" parent="gOvX5m7XAD0OY206exAl-2">
          <mxGeometry x="84" y="70" width="120" height="40" as="geometry" />
        </mxCell>
        <mxCell id="gOvX5m7XAD0OY206exAl-16" style="edgeStyle=orthogonalEdgeStyle;rounded=0;orthogonalLoop=1;jettySize=auto;html=1;exitX=0.5;exitY=1;exitDx=0;exitDy=0;entryX=0.5;entryY=0;entryDx=0;entryDy=0;" edge="1" parent="gOvX5m7XAD0OY206exAl-2" source="gOvX5m7XAD0OY206exAl-17" target="gOvX5m7XAD0OY206exAl-5">
          <mxGeometry relative="1" as="geometry" />
        </mxCell>
        <mxCell id="gOvX5m7XAD0OY206exAl-17" value="pilih pasien" style="rounded=1;whiteSpace=wrap;html=1;arcSize=40;fontColor=#000000;fillColor=#ffffc0;strokeColor=#ff0000;" vertex="1" parent="gOvX5m7XAD0OY206exAl-2">
          <mxGeometry x="84" y="150" width="120" height="40" as="geometry" />
        </mxCell>
        <mxCell id="gOvX5m7XAD0OY206exAl-18" style="edgeStyle=orthogonalEdgeStyle;rounded=0;orthogonalLoop=1;jettySize=auto;html=1;exitX=1;exitY=0.5;exitDx=0;exitDy=0;entryX=0;entryY=0.5;entryDx=0;entryDy=0;strokeColor=#FF0000;" edge="1" parent="gOvX5m7XAD0OY206exAl-1" source="gOvX5m7XAD0OY206exAl-5" target="gOvX5m7XAD0OY206exAl-21">
          <mxGeometry relative="1" as="geometry" />
        </mxCell>
        <mxCell id="gOvX5m7XAD0OY206exAl-19" value="" style="edgeStyle=orthogonalEdgeStyle;html=1;verticalAlign=bottom;endArrow=open;endSize=8;strokeColor=#ff0000;rounded=0;entryX=0;entryY=0.5;entryDx=0;entryDy=0;" edge="1" parent="gOvX5m7XAD0OY206exAl-1" source="gOvX5m7XAD0OY206exAl-10" target="gOvX5m7XAD0OY206exAl-23">
          <mxGeometry relative="1" as="geometry">
            <mxPoint x="235" y="582" as="targetPoint" />
          </mxGeometry>
        </mxCell>
        <mxCell id="gOvX5m7XAD0OY206exAl-20" value="SIstem" style="swimlane;startSize=20;html=1;" vertex="1" parent="gOvX5m7XAD0OY206exAl-1">
          <mxGeometry x="280" y="20" width="330" height="750" as="geometry" />
        </mxCell>
        <mxCell id="gOvX5m7XAD0OY206exAl-21" value="kirim form edit data&amp;nbsp;" style="rounded=1;whiteSpace=wrap;html=1;arcSize=40;fontColor=#000000;fillColor=#ffffc0;strokeColor=#ff0000;" vertex="1" parent="gOvX5m7XAD0OY206exAl-20">
          <mxGeometry x="120" y="222" width="120" height="40" as="geometry" />
        </mxCell>
        <mxCell id="gOvX5m7XAD0OY206exAl-22" style="edgeStyle=orthogonalEdgeStyle;rounded=0;orthogonalLoop=1;jettySize=auto;html=1;exitX=0.5;exitY=1;exitDx=0;exitDy=0;entryX=0.5;entryY=0;entryDx=0;entryDy=0;strokeColor=light-dark(#ff0000, #ededed);" edge="1" parent="gOvX5m7XAD0OY206exAl-20" source="gOvX5m7XAD0OY206exAl-23" target="gOvX5m7XAD0OY206exAl-28">
          <mxGeometry relative="1" as="geometry" />
        </mxCell>
        <mxCell id="gOvX5m7XAD0OY206exAl-23" value="validasi data" style="rounded=1;whiteSpace=wrap;html=1;arcSize=40;fontColor=#000000;fillColor=#ffffc0;strokeColor=#ff0000;" vertex="1" parent="gOvX5m7XAD0OY206exAl-20">
          <mxGeometry x="100" y="362" width="120" height="40" as="geometry" />
        </mxCell>
        <mxCell id="gOvX5m7XAD0OY206exAl-24" style="edgeStyle=orthogonalEdgeStyle;rounded=0;orthogonalLoop=1;jettySize=auto;html=1;exitX=0;exitY=0.5;exitDx=0;exitDy=0;entryX=0.5;entryY=0;entryDx=0;entryDy=0;strokeColor=#FF0000;" edge="1" parent="gOvX5m7XAD0OY206exAl-20" source="gOvX5m7XAD0OY206exAl-28" target="gOvX5m7XAD0OY206exAl-33">
          <mxGeometry relative="1" as="geometry" />
        </mxCell>
        <mxCell id="gOvX5m7XAD0OY206exAl-25" value="ya" style="edgeLabel;html=1;align=center;verticalAlign=middle;resizable=0;points=[];" vertex="1" connectable="0" parent="gOvX5m7XAD0OY206exAl-24">
          <mxGeometry x="-0.3" y="2" relative="1" as="geometry">
            <mxPoint as="offset" />
          </mxGeometry>
        </mxCell>
        <mxCell id="gOvX5m7XAD0OY206exAl-26" style="edgeStyle=orthogonalEdgeStyle;rounded=0;orthogonalLoop=1;jettySize=auto;html=1;exitX=1;exitY=0.5;exitDx=0;exitDy=0;entryX=0.5;entryY=0;entryDx=0;entryDy=0;strokeColor=light-dark(#ff0000, #ededed);" edge="1" parent="gOvX5m7XAD0OY206exAl-20" source="gOvX5m7XAD0OY206exAl-28">
          <mxGeometry relative="1" as="geometry">
            <mxPoint x="250" y="522" as="targetPoint" />
          </mxGeometry>
        </mxCell>
        <mxCell id="gOvX5m7XAD0OY206exAl-27" value="tidak" style="edgeLabel;html=1;align=center;verticalAlign=middle;resizable=0;points=[];" vertex="1" connectable="0" parent="gOvX5m7XAD0OY206exAl-26">
          <mxGeometry x="-0.5" y="-1" relative="1" as="geometry">
            <mxPoint as="offset" />
          </mxGeometry>
        </mxCell>
        <mxCell id="gOvX5m7XAD0OY206exAl-28" value="valid" style="rhombus;whiteSpace=wrap;html=1;fontColor=#000000;fillColor=#ffffc0;strokeColor=#ff0000;" vertex="1" parent="gOvX5m7XAD0OY206exAl-20">
          <mxGeometry x="120" y="452" width="80" height="40" as="geometry" />
        </mxCell>
        <mxCell id="gOvX5m7XAD0OY206exAl-29" value="" style="edgeStyle=elbowEdgeStyle;html=1;verticalAlign=bottom;endArrow=open;endSize=8;strokeColor=#ff0000;rounded=0;" edge="1" parent="gOvX5m7XAD0OY206exAl-20">
          <mxGeometry relative="1" as="geometry">
            <mxPoint x="-76" y="322" as="targetPoint" />
            <mxPoint x="169" y="262" as="sourcePoint" />
            <Array as="points">
              <mxPoint x="180" y="322" />
            </Array>
          </mxGeometry>
        </mxCell>
        <mxCell id="gOvX5m7XAD0OY206exAl-30" value="kirim pesan eror ke user&amp;nbsp;" style="rounded=1;whiteSpace=wrap;html=1;arcSize=40;fontColor=#000000;fillColor=#ffffc0;strokeColor=#ff0000;" vertex="1" parent="gOvX5m7XAD0OY206exAl-20">
          <mxGeometry x="190" y="521" width="120" height="40" as="geometry" />
        </mxCell>
        <mxCell id="gOvX5m7XAD0OY206exAl-31" value="" style="edgeStyle=orthogonalEdgeStyle;html=1;verticalAlign=bottom;endArrow=open;endSize=8;strokeColor=#ff0000;rounded=0;entryX=1;entryY=0.5;entryDx=0;entryDy=0;" edge="1" parent="gOvX5m7XAD0OY206exAl-20" target="gOvX5m7XAD0OY206exAl-36">
          <mxGeometry relative="1" as="geometry">
            <mxPoint x="250" y="622" as="targetPoint" />
            <mxPoint x="250" y="562" as="sourcePoint" />
          </mxGeometry>
        </mxCell>
        <mxCell id="gOvX5m7XAD0OY206exAl-32" style="edgeStyle=orthogonalEdgeStyle;rounded=0;orthogonalLoop=1;jettySize=auto;html=1;exitX=0.5;exitY=1;exitDx=0;exitDy=0;entryX=0.5;entryY=0;entryDx=0;entryDy=0;strokeColor=#FF0000;" edge="1" parent="gOvX5m7XAD0OY206exAl-20" source="gOvX5m7XAD0OY206exAl-33" target="gOvX5m7XAD0OY206exAl-35">
          <mxGeometry relative="1" as="geometry" />
        </mxCell>
        <mxCell id="gOvX5m7XAD0OY206exAl-33" value="simpan data" style="rounded=1;whiteSpace=wrap;html=1;arcSize=40;fontColor=#000000;fillColor=#ffffc0;strokeColor=#ff0000;" vertex="1" parent="gOvX5m7XAD0OY206exAl-20">
          <mxGeometry x="10" y="522" width="120" height="40" as="geometry" />
        </mxCell>
        <mxCell id="gOvX5m7XAD0OY206exAl-34" style="edgeStyle=orthogonalEdgeStyle;rounded=0;orthogonalLoop=1;jettySize=auto;html=1;exitX=1;exitY=0.5;exitDx=0;exitDy=0;entryX=0.5;entryY=0;entryDx=0;entryDy=0;strokeColor=#FF0000;" edge="1" parent="gOvX5m7XAD0OY206exAl-20" source="gOvX5m7XAD0OY206exAl-35" target="gOvX5m7XAD0OY206exAl-36">
          <mxGeometry relative="1" as="geometry" />
        </mxCell>
        <mxCell id="gOvX5m7XAD0OY206exAl-35" value="kirim pesan sukses ke user" style="rounded=1;whiteSpace=wrap;html=1;arcSize=40;fontColor=#000000;fillColor=#ffffc0;strokeColor=#ff0000;" vertex="1" parent="gOvX5m7XAD0OY206exAl-20">
          <mxGeometry x="10" y="592" width="120" height="40" as="geometry" />
        </mxCell>
        <mxCell id="gOvX5m7XAD0OY206exAl-36" value="" style="rhombus;whiteSpace=wrap;html=1;fontColor=#000000;fillColor=#ffffc0;strokeColor=#ff0000;" vertex="1" parent="gOvX5m7XAD0OY206exAl-20">
          <mxGeometry x="160" y="642" width="40" height="30" as="geometry" />
        </mxCell>
        <mxCell id="gOvX5m7XAD0OY206exAl-37" style="edgeStyle=orthogonalEdgeStyle;rounded=0;orthogonalLoop=1;jettySize=auto;html=1;exitX=0;exitY=0.5;exitDx=0;exitDy=0;entryX=1;entryY=0.5;entryDx=0;entryDy=0;strokeColor=#FF0000;" edge="1" parent="gOvX5m7XAD0OY206exAl-1" source="gOvX5m7XAD0OY206exAl-36" target="gOvX5m7XAD0OY206exAl-12">
          <mxGeometry relative="1" as="geometry" />
        </mxCell>
      </root>
    </mxGraphModel>
  </diagram>
</mxfile>
